<svg width="40" height="40" viewBox="0 0 40 40" fill="none" xmlns="http://www.w3.org/2000/svg">
  <path fill-rule="evenodd" clip-rule="evenodd" d="M21.0763 0.0109061C15.6832 0.185538 10.6812 2.44956 6.99119 6.38638C-0.626098 14.5133 -0.211398 27.3222 7.91525 34.9396C10.7658 37.6112 14.1935 39.2907 17.7702 40L18.8422 37.3195C15.5809 36.7746 12.4402 35.2988 9.85208 32.8731C2.86506 26.3236 2.50852 15.3109 9.05769 8.32363C12.2304 4.93884 16.5312 2.99177 21.168 2.84177C21.3603 2.83545 21.5524 2.83262 21.7442 2.83262C25.2415 2.83262 28.5917 3.87004 31.445 5.80459L32.5187 3.11981C29.3135 1.08603 25.6061 0 21.746 0C21.5232 0 21.3001 0.00363536 21.0763 0.0109061ZM23.121 10.2605H20.4011H20.3099L20.276 10.3452L13.1189 28.2377L13.0451 28.4225H13.244H16.1325H16.2246L16.2579 28.3366L18.0139 23.8214H25.7315L27.5096 28.3372L27.5431 28.4225H27.6349H30.6255H30.8243L30.7504 28.2377L26.1291 16.6843L26.0953 16.5997H26.004H23.1125H22.9157L22.987 16.7831L24.6262 20.9961H19.1411L23.2466 10.444L23.318 10.2605H23.121Z" fill="url(#paint0_linear_3399_5263)"/>
  <defs>
    <linearGradient id="paint0_linear_3399_5263" x1="7.73685" y1="-2.21236" x2="34.4867" y2="29.3841" gradientUnits="userSpaceOnUse">
      <stop stop-color="#DBCDF6"/>
      <stop offset="1" stop-color="white"/>
    </linearGradient>
  </defs>
</svg>